<svg xmlns="http://www.w3.org/2000/svg" viewBox="0 0 220 48" width="220" height="48">
  <defs>
    <linearGradient id="iconBg" x1="0%" y1="0%" x2="135%" y2="135%">
      <stop offset="0%" style="stop-color:#6478ff"/>
      <stop offset="100%" style="stop-color:#3641f5"/>
    </linearGradient>
    <linearGradient id="iconSheen" x1="0%" y1="0%" x2="0%" y2="100%">
      <stop offset="0%" style="stop-color:#ffffff;stop-opacity:0.18"/>
      <stop offset="100%" style="stop-color:#ffffff;stop-opacity:0"/>
    </linearGradient>
    <filter id="iconShadow" x="-20%" y="-20%" width="140%" height="140%">
      <feDropShadow dx="0" dy="2" stdDeviation="3" flood-color="#465fff" flood-opacity="0.35"/>
    </filter>
  </defs>

  <rect x="0" y="4" width="40" height="40" rx="9" fill="url(#iconBg)" filter="url(#iconShadow)"/>
  <rect x="0" y="4" width="40" height="20" rx="9" fill="url(#iconSheen)"/>

  <rect x="7"  y="12" width="11" height="5.5" rx="1.2" fill="#ffffff"/>
  <rect x="21" y="12" width="11" height="5.5" rx="1.2" fill="#ffffff"/>
  <rect x="18.5" y="12" width="2" height="5.5" rx="0.5" fill="#465fff"/>

  <rect x="7"  y="19" width="5"  height="5.5" rx="1.2" fill="#ffffff" opacity="0.85"/>
  <rect x="14" y="19" width="11" height="5.5" rx="1.2" fill="#ffffff"/>
  <rect x="27" y="19" width="5"  height="5.5" rx="1.2" fill="#ffffff" opacity="0.85"/>
  <rect x="11.5" y="19" width="2" height="5.5" rx="0.5" fill="#465fff"/>
  <rect x="25.5" y="19" width="2" height="5.5" rx="0.5" fill="#465fff"/>

  <rect x="7"  y="26" width="11" height="5.5" rx="1.2" fill="#ffffff" opacity="0.9"/>
  <rect x="21" y="26" width="11" height="5.5" rx="1.2" fill="#ffffff" opacity="0.9"/>
  <rect x="18.5" y="26" width="2" height="5.5" rx="0.5" fill="#465fff"/>

  <rect x="7" y="17.5" width="25" height="1.2" rx="0.6" fill="#3641f5" opacity="0.6"/>
  <rect x="7" y="24.5" width="25" height="1.2" rx="0.6" fill="#3641f5" opacity="0.6"/>

  <text x="50" y="28" font-family="Outfit, -apple-system, sans-serif" font-size="18" font-weight="700" fill="#101828" dominant-baseline="middle" letter-spacing="-0.2">Brick</text>
  <text x="103" y="28" font-family="Outfit, -apple-system, sans-serif" font-size="18" font-weight="400" fill="#465fff" dominant-baseline="middle" letter-spacing="-0.2">Mgmt</text>
</svg>
