<svg xmlns="http://www.w3.org/2000/svg" viewBox="0 0 32 32" width="32" height="32">
  <defs>
    <linearGradient id="iconBg" x1="0%" y1="0%" x2="135%" y2="135%">
      <stop offset="0%" style="stop-color:#6478ff"/>
      <stop offset="100%" style="stop-color:#3641f5"/>
    </linearGradient>
    <linearGradient id="iconSheen" x1="0%" y1="0%" x2="0%" y2="100%">
      <stop offset="0%" style="stop-color:#ffffff;stop-opacity:0.18"/>
      <stop offset="100%" style="stop-color:#ffffff;stop-opacity:0"/>
    </linearGradient>
  </defs>

  <rect x="0" y="0" width="32" height="32" rx="7" fill="url(#iconBg)"/>
  <rect x="0" y="0" width="32" height="16" rx="7" fill="url(#iconSheen)"/>

  <rect x="5"  y="7"  width="9"  height="4.5" rx="1" fill="#ffffff"/>
  <rect x="17" y="7"  width="9"  height="4.5" rx="1" fill="#ffffff"/>
  <rect x="14.5" y="7" width="1.8" height="4.5" rx="0.5" fill="#465fff"/>

  <rect x="5"  y="13" width="4"  height="4.5" rx="1" fill="#ffffff" opacity="0.85"/>
  <rect x="11" y="13" width="9"  height="4.5" rx="1" fill="#ffffff"/>
  <rect x="22" y="13" width="4"  height="4.5" rx="1" fill="#ffffff" opacity="0.85"/>
  <rect x="9"  y="13" width="1.8" height="4.5" rx="0.5" fill="#465fff"/>
  <rect x="20.5" y="13" width="1.8" height="4.5" rx="0.5" fill="#465fff"/>

  <rect x="5"  y="19" width="9"  height="4.5" rx="1" fill="#ffffff" opacity="0.9"/>
  <rect x="17" y="19" width="9"  height="4.5" rx="1" fill="#ffffff" opacity="0.9"/>
  <rect x="14.5" y="19" width="1.8" height="4.5" rx="0.5" fill="#465fff"/>

  <rect x="5" y="12"  width="21" height="1" rx="0.5" fill="#3641f5" opacity="0.6"/>
  <rect x="5" y="18"  width="21" height="1" rx="0.5" fill="#3641f5" opacity="0.6"/>
</svg>
